<svg width="45" height="45" viewBox="0 0 45 45" fill="none" xmlns="http://www.w3.org/2000/svg">
<g clip-path="url(#clip0_125_186)">
<rect width="45" height="45" rx="22.5" fill="white"/>
<circle cx="22.5" cy="22.5" r="22.5" fill="#E5F9F5"/>
<path d="M18.1132 6.03021C18.1132 6.03021 12.6817 7.20471 13.0777 14.3372C13.4737 21.4697 12.2002 23.4812 12.2002 23.4812L13.5952 23.0942L18.1087 26.1857L30.2767 23.7512L32.1847 24.3182L32.7742 22.9862C32.7742 22.9862 33.4447 23.7062 34.1107 23.7467C34.1107 23.7467 33.4897 20.5427 33.6067 19.1117C33.8542 16.1147 32.4142 11.7542 32.4142 11.7542L18.1042 6.03021H18.1132Z" fill="#441D39"/>
<path d="M40.4059 39.5103C37.3369 38.4798 30.4924 35.0328 28.1659 33.8448C27.9859 33.7548 27.8374 33.6738 27.7159 33.6153C27.4999 33.5028 27.3739 33.4398 27.3739 33.4398H18.1174C18.1174 33.4398 17.9959 33.5028 17.7754 33.6153C17.6539 33.6783 17.5009 33.7548 17.3254 33.8448C16.9834 34.0203 16.5469 34.2408 16.0384 34.4973C13.0729 35.9913 7.70437 38.6328 5.08537 39.5103C1.35938 40.7658 1.35938 47.1288 1.35938 47.1288H44.1319C44.1319 47.1288 44.1319 40.7658 40.4059 39.5103V39.5103Z" fill="#FDEBD9"/>
<path d="M26.7938 29.0338H18.6398L18.1133 33.4348C18.1133 34.2988 20.1878 35.0008 22.7438 35.0008C25.2998 35.0008 27.3743 34.2988 27.3743 33.4348L26.7983 29.0338H26.7938Z" fill="#C1735C"/>
<path d="M15.0798 13.7698C15.0798 13.7698 15.3768 11.3488 17.4288 10.8988C17.4288 10.8988 31.8603 10.8988 28.9668 10.8988C28.9668 10.8988 30.8433 10.8988 31.2348 13.5988C31.2933 14.0038 31.8918 18.1573 31.8558 19.7908C31.8333 20.8393 32.2428 20.2858 32.2428 20.2858C32.2428 20.2858 32.6838 18.6118 32.7558 16.4158C32.8908 12.2308 32.3463 5.03528 23.5218 5.03528C14.6973 5.03528 13.8828 10.3318 13.8828 17.1628L14.2068 20.5243C14.2203 20.6593 14.3328 20.7583 14.4678 20.7583C14.7243 20.7583 15.0753 13.7698 15.0753 13.7698H15.0798Z" fill="#C1735C"/>
<path d="M30.9287 12.8967C31.1001 12.8967 31.2392 12.7577 31.2392 12.5862C31.2392 12.4147 31.1001 12.2757 30.9287 12.2757C30.7572 12.2757 30.6182 12.4147 30.6182 12.5862C30.6182 12.7577 30.7572 12.8967 30.9287 12.8967Z" fill="#FF9988"/>
<path d="M18.2881 31.9767C18.2881 31.9767 24.6106 32.5572 26.8381 29.7852V26.5992L18.8236 27.3687L18.2881 31.9767V31.9767Z" fill="#A5503C"/>
<path fill-rule="evenodd" clip-rule="evenodd" d="M23.4086 30.312C27.6878 30.312 31.2869 26.5946 32.3319 21.5518C32.5265 21.499 32.6153 21.4556 32.6153 21.4556C33.5603 20.9524 34.0688 19.7887 33.9248 18.2745C33.8254 17.2296 33.0359 16.9977 32.5562 16.9544C31.9526 11.1934 28.0871 6.75 23.4086 6.75C18.6336 6.75 14.7055 11.3786 14.2279 17.3126C14.0013 17.3085 12.6535 17.3431 12.6041 18.738C12.5501 20.2612 13.1306 21.3889 14.1026 21.8338C14.1026 21.8338 14.2486 21.894 14.5726 21.9452C15.7193 26.7868 19.2414 30.312 23.4086 30.312Z" fill="#C1735C"/>
<path d="M27.4771 19.4576C27.7778 19.4576 28.0216 19.0345 28.0216 18.5126C28.0216 17.9907 27.7778 17.5676 27.4771 17.5676C27.1764 17.5676 26.9326 17.9907 26.9326 18.5126C26.9326 19.0345 27.1764 19.4576 27.4771 19.4576Z" fill="#441D39"/>
<path d="M19.3101 19.2642C19.6108 19.2642 19.8546 18.8411 19.8546 18.3192C19.8546 17.7973 19.6108 17.3742 19.3101 17.3742C19.0094 17.3742 18.7656 17.7973 18.7656 18.3192C18.7656 18.8411 19.0094 19.2642 19.3101 19.2642Z" fill="#441D39"/>
<path d="M23.7565 22.7607H22.897C22.5145 22.7607 22.177 22.6122 21.997 22.3692C21.8665 22.1937 21.8305 21.9867 21.8935 21.7842C22.087 21.1542 22.3525 19.4442 22.357 19.4262C22.375 19.3047 22.492 19.2237 22.6135 19.2372C22.735 19.2552 22.8205 19.3722 22.8025 19.4937C22.7935 19.5657 22.528 21.2577 22.3255 21.9147C22.3075 21.9777 22.3165 22.0407 22.3615 22.1037C22.456 22.2342 22.6675 22.3152 22.9015 22.3152H23.761C23.887 22.3152 23.986 22.4142 23.986 22.5402C23.986 22.6662 23.887 22.7652 23.761 22.7652L23.7565 22.7607Z" fill="#A5503C"/>
<path d="M27.9592 20.9384C28.8265 20.9384 29.5297 20.7772 29.5297 20.5784C29.5297 20.3796 28.8265 20.2184 27.9592 20.2184C27.0918 20.2184 26.3887 20.3796 26.3887 20.5784C26.3887 20.7772 27.0918 20.9384 27.9592 20.9384Z" fill="#AF5D4E"/>
<path d="M18.7932 20.9384C19.6605 20.9384 20.3637 20.7772 20.3637 20.5784C20.3637 20.3796 19.6605 20.2184 18.7932 20.2184C17.9258 20.2184 17.2227 20.3796 17.2227 20.5784C17.2227 20.7772 17.9258 20.9384 18.7932 20.9384Z" fill="#AF5D4E"/>
<path d="M29.4125 16.2137C27.8915 15.8672 26.762 16.2137 26.0735 16.3487C25.781 16.4072 25.691 16.0427 25.691 16.0427C25.619 15.7997 25.9385 15.6062 26.1725 15.5522C26.951 15.3587 27.95 15.2237 29.471 15.6512C29.7635 15.7322 29.795 15.9752 29.795 15.9752C29.777 16.2452 29.6105 16.2632 29.4125 16.2137V16.2137Z" fill="#441D39"/>
<path d="M17.2807 16.1502C18.8152 15.8622 19.9312 16.2582 20.6152 16.4157C20.9077 16.4832 21.0067 16.1277 21.0067 16.1277C21.0877 15.8892 20.7772 15.6822 20.5477 15.6147C19.7782 15.3942 18.7837 15.2187 17.2447 15.5832C16.9477 15.6552 16.9072 15.8937 16.9072 15.8937C16.9117 16.1637 17.0782 16.1862 17.2807 16.1502V16.1502Z" fill="#441D39"/>
<path d="M23.0721 26.1807C22.0056 26.1807 21.1641 25.9557 21.1056 25.9422C20.9841 25.9107 20.9166 25.7847 20.9481 25.6677C20.9796 25.5462 21.1056 25.4787 21.2226 25.5102C21.2451 25.5147 23.3151 26.0637 24.9846 25.4112C25.1016 25.3662 25.2321 25.4247 25.2771 25.5372C25.3221 25.6542 25.2636 25.7847 25.1511 25.8297C24.4626 26.0997 23.7246 26.1852 23.0721 26.1852V26.1807Z" fill="#A5503C"/>
<path d="M29.7593 5.80084C23.5853 0.918339 18.1133 6.03034 18.1133 6.03034C12.6998 7.02034 13.4693 15.0123 13.5998 15.8673C13.7303 16.7178 13.8968 17.3073 13.8968 17.3073C14.0138 17.3118 14.1218 17.3073 14.2253 17.2848L14.6843 20.5788C14.7158 20.6958 14.8913 20.7048 14.9318 20.5788C14.9723 20.5338 15.0983 18.6078 15.2198 16.5963C16.2458 15.0798 16.2008 11.5293 18.1133 9.94084C19.0493 9.16234 20.3633 9.77434 20.3633 9.77434C20.3633 9.77434 21.3443 8.04184 23.6798 9.04984C25.7813 9.95434 28.3643 15.6558 31.2128 17.0103C31.3253 18.8643 31.4378 20.5383 31.4738 20.5833C31.5143 20.7093 31.6898 20.7003 31.7213 20.5833L32.1803 17.2938L33.4853 16.6143C33.4853 16.6143 34.0748 8.49634 29.7503 5.80534L29.7593 5.80084Z" fill="#441D39"/>
<path d="M40.4063 39.5104C38.7863 38.9659 36.1133 37.7464 33.6068 36.5449L26.6138 39.0244V45.7159H26.1638V39.1819L24.7148 39.6949V47.1244H44.1323C44.1323 47.1244 44.1323 40.7614 40.4063 39.5059V39.5104Z" fill="#4598C4"/>
<path d="M30.2588 33.9303C28.0448 33.1698 24.7148 39.6948 24.7148 39.6948L26.1638 39.1818V45.7158H26.6138V39.0243L33.6068 36.5448L33.6338 36.5358C33.6338 36.5358 32.4773 34.6908 30.2633 33.9303H30.2588Z" fill="#2B7FA5"/>
<path d="M19.4451 39.2128L18.4056 45.5353L17.9601 45.4633L19.0131 39.0598L11.8941 36.5353C9.38309 37.7413 6.70109 38.9653 5.07659 39.5098C1.35059 40.7653 1.35059 47.1283 1.35059 47.1283H20.7141L20.8131 39.6988L19.4451 39.2128V39.2128Z" fill="#4598C4"/>
<path d="M15.2689 33.9302C13.0594 34.6862 11.9029 36.5267 11.8984 36.5357L19.0174 39.0602L17.9644 45.4637L18.4099 45.5357L19.4494 39.2132L20.8174 39.6992C20.8174 39.6992 17.4829 33.1742 15.2734 33.9347L15.2689 33.9302Z" fill="#2B7FA5"/>
</g>
<defs>
<clipPath id="clip0_125_186">
<rect width="45" height="45" rx="22.5" fill="white"/>
</clipPath>
</defs>
</svg>
