<?xml version="1.0" encoding="UTF-8" standalone="no"?>
<!DOCTYPE svg PUBLIC "-//W3C//DTD SVG 1.1//EN" "http://www.w3.org/Graphics/SVG/1.1/DTD/svg11.dtd">
<svg width="100%" height="100%" viewBox="0 0 900 900" version="1.1" xmlns="http://www.w3.org/2000/svg" xmlns:xlink="http://www.w3.org/1999/xlink" xml:space="preserve" xmlns:serif="http://www.serif.com/" style="fill-rule:evenodd;clip-rule:evenodd;stroke-linejoin:round;stroke-miterlimit:2;">
    <g transform="matrix(1,0,0,1,-1280.48,0)">
        <g id="Artboard1" transform="matrix(1,0,0,1,1280.48,0)">
            <rect x="0" y="0" width="900" height="900" style="fill:none;"/>
            <g transform="matrix(1.78448,0,0,1.78448,-315.301,-469.151)">
                <g transform="matrix(8.32137,0,0,8.32137,-2886.68,-936.336)">
                    <g transform="matrix(12,0,0,12,376.553,169.331)">
                        <path d="M0.643,-0.002C0.648,-0.002 0.653,-0.004 0.658,-0.008C0.662,-0.012 0.664,-0.017 0.664,-0.022C0.664,-0.025 0.663,-0.029 0.661,-0.033L0.535,-0.261C0.533,-0.264 0.532,-0.267 0.533,-0.272C0.533,-0.277 0.536,-0.281 0.541,-0.284C0.611,-0.324 0.648,-0.389 0.648,-0.47C0.648,-0.635 0.522,-0.698 0.368,-0.698L0.156,-0.698C0.107,-0.698 0.069,-0.661 0.069,-0.612L0.069,-0.026C0.069,-0.014 0.083,-0.002 0.094,-0.002L0.231,-0.002C0.238,-0.002 0.244,-0.004 0.249,-0.009C0.254,-0.013 0.256,-0.019 0.256,-0.026L0.256,-0.191C0.256,-0.203 0.251,-0.215 0.242,-0.227C0.232,-0.238 0.219,-0.244 0.202,-0.244L0.333,-0.244C0.345,-0.244 0.354,-0.239 0.36,-0.228L0.462,-0.028C0.47,-0.011 0.483,-0.002 0.502,-0.002L0.643,-0.002ZM0.455,-0.471C0.455,-0.417 0.419,-0.391 0.367,-0.391L0.28,-0.391C0.271,-0.391 0.264,-0.394 0.259,-0.4C0.253,-0.406 0.25,-0.413 0.25,-0.421L0.25,-0.502C0.25,-0.532 0.224,-0.555 0.195,-0.555L0.367,-0.555C0.393,-0.555 0.414,-0.548 0.431,-0.534C0.447,-0.519 0.455,-0.498 0.455,-0.471Z" style="fill-rule:nonzero;"/>
                    </g>
                    <g transform="matrix(12,0,0,12,384.893,169.331)">
                        <path d="M0.069,-0.027C0.069,-0.015 0.082,-0.002 0.094,-0.002L0.572,-0.002C0.579,-0.002 0.586,-0.004 0.591,-0.009C0.596,-0.013 0.598,-0.019 0.598,-0.027L0.598,-0.125C0.598,-0.142 0.589,-0.151 0.572,-0.151L0.28,-0.151C0.263,-0.151 0.25,-0.165 0.25,-0.182L0.25,-0.229C0.25,-0.258 0.223,-0.281 0.195,-0.281L0.498,-0.281C0.513,-0.281 0.524,-0.292 0.524,-0.307L0.524,-0.397C0.524,-0.413 0.514,-0.423 0.498,-0.423L0.28,-0.423C0.263,-0.423 0.25,-0.437 0.25,-0.454L0.25,-0.496C0.25,-0.526 0.225,-0.55 0.195,-0.55L0.564,-0.55C0.572,-0.55 0.578,-0.552 0.583,-0.557C0.588,-0.561 0.59,-0.567 0.59,-0.574L0.59,-0.673C0.59,-0.689 0.58,-0.699 0.564,-0.699L0.156,-0.699C0.107,-0.699 0.069,-0.661 0.069,-0.612L0.069,-0.027Z" style="fill-rule:nonzero;"/>
                    </g>
                    <g transform="matrix(12,0,0,12,392.597,169.331)">
                        <path d="M0.109,-0.7C0.062,-0.7 0.022,-0.661 0.022,-0.614L0.022,-0.563C0.022,-0.549 0.034,-0.538 0.048,-0.538L0.193,-0.538C0.21,-0.538 0.223,-0.525 0.223,-0.508L0.223,-0.028C0.223,-0.021 0.226,-0.015 0.231,-0.011C0.236,-0.006 0.242,-0.004 0.249,-0.004L0.388,-0.004C0.395,-0.004 0.401,-0.006 0.406,-0.011C0.411,-0.015 0.414,-0.021 0.414,-0.028L0.414,-0.486C0.414,-0.515 0.385,-0.538 0.357,-0.538L0.589,-0.538C0.604,-0.538 0.615,-0.548 0.615,-0.563L0.615,-0.675C0.615,-0.69 0.604,-0.7 0.589,-0.7L0.109,-0.7Z" style="fill-rule:nonzero;"/>
                    </g>
                    <g transform="matrix(12,0,0,12,400.217,169.331)">
                        <path d="M0.014,-0.006C0.019,-0.002 0.024,0 0.029,0L0.158,0C0.175,0 0.186,-0.007 0.192,-0.022L0.206,-0.06C0.212,-0.075 0.211,-0.089 0.204,-0.1C0.197,-0.11 0.189,-0.117 0.178,-0.119L0.212,-0.119C0.3,-0.119 0.39,-0.132 0.473,-0.163L0.525,-0.022C0.531,-0.007 0.542,0 0.559,0L0.688,0C0.699,0 0.709,-0.01 0.709,-0.021C0.709,-0.026 0.709,-0.029 0.708,-0.03L0.476,-0.668C0.469,-0.687 0.455,-0.697 0.436,-0.697L0.281,-0.697C0.262,-0.697 0.248,-0.687 0.241,-0.668L0.009,-0.03C0.008,-0.029 0.008,-0.026 0.008,-0.021C0.008,-0.016 0.01,-0.011 0.014,-0.006ZM0.435,-0.302C0.389,-0.277 0.319,-0.265 0.268,-0.262L0.358,-0.522L0.435,-0.302Z" style="fill-rule:nonzero;"/>
                    </g>
                    <g transform="matrix(12,0,0,12,408.857,169.331)">
                        <path d="M0.068,-0.027C0.068,-0.015 0.081,-0.002 0.093,-0.002L0.235,-0.002C0.243,-0.002 0.249,-0.005 0.253,-0.01C0.258,-0.015 0.26,-0.02 0.26,-0.027L0.26,-0.674C0.26,-0.681 0.258,-0.687 0.253,-0.692C0.249,-0.697 0.243,-0.699 0.235,-0.699L0.155,-0.699C0.106,-0.699 0.068,-0.661 0.068,-0.612L0.068,-0.027Z" style="fill-rule:nonzero;"/>
                    </g>
                    <g transform="matrix(12,0,0,12,412.805,169.331)">
                        <path d="M0.07,-0.028C0.07,-0.016 0.083,-0.003 0.095,-0.003L0.558,-0.003C0.565,-0.003 0.572,-0.005 0.577,-0.01C0.582,-0.014 0.584,-0.02 0.584,-0.028L0.584,-0.134C0.584,-0.142 0.582,-0.148 0.577,-0.153C0.572,-0.157 0.565,-0.159 0.558,-0.159L0.29,-0.159C0.28,-0.159 0.272,-0.163 0.267,-0.171C0.262,-0.178 0.259,-0.185 0.259,-0.19L0.259,-0.675C0.259,-0.682 0.257,-0.688 0.252,-0.693C0.248,-0.698 0.242,-0.7 0.235,-0.7L0.157,-0.7C0.111,-0.7 0.07,-0.66 0.07,-0.614L0.07,-0.028Z" style="fill-rule:nonzero;"/>
                    </g>
                    <g transform="matrix(12,0,0,12,376.553,181.331)">
                        <path d="M0.656,-0.469C0.656,-0.635 0.537,-0.7 0.38,-0.7L0.16,-0.7C0.15,-0.7 0.14,-0.698 0.13,-0.695C0.095,-0.681 0.073,-0.652 0.073,-0.613L0.073,-0.028C0.073,-0.016 0.086,-0.003 0.098,-0.003L0.241,-0.003C0.255,-0.003 0.266,-0.015 0.266,-0.028L0.266,-0.213C0.266,-0.23 0.279,-0.243 0.296,-0.243L0.38,-0.243C0.527,-0.243 0.656,-0.298 0.656,-0.469ZM0.462,-0.47C0.462,-0.415 0.429,-0.385 0.375,-0.385L0.294,-0.385C0.286,-0.385 0.279,-0.388 0.273,-0.394C0.266,-0.399 0.263,-0.407 0.263,-0.416L0.263,-0.502C0.263,-0.52 0.255,-0.531 0.243,-0.543C0.237,-0.548 0.231,-0.551 0.224,-0.554C0.217,-0.556 0.211,-0.557 0.206,-0.557L0.375,-0.557C0.432,-0.557 0.462,-0.527 0.462,-0.47Z" style="fill-rule:nonzero;"/>
                    </g>
                    <g transform="matrix(12,0,0,12,384.701,181.331)">
                        <path d="M0.07,-0.028C0.07,-0.016 0.083,-0.003 0.095,-0.003L0.558,-0.003C0.565,-0.003 0.572,-0.005 0.577,-0.01C0.582,-0.014 0.584,-0.02 0.584,-0.028L0.584,-0.134C0.584,-0.142 0.582,-0.148 0.577,-0.153C0.572,-0.157 0.565,-0.159 0.558,-0.159L0.29,-0.159C0.28,-0.159 0.272,-0.163 0.267,-0.171C0.262,-0.178 0.259,-0.185 0.259,-0.19L0.259,-0.675C0.259,-0.682 0.257,-0.688 0.252,-0.693C0.248,-0.698 0.242,-0.7 0.235,-0.7L0.157,-0.7C0.111,-0.7 0.07,-0.66 0.07,-0.614L0.07,-0.028Z" style="fill-rule:nonzero;"/>
                    </g>
                    <g transform="matrix(12,0,0,12,391.745,181.331)">
                        <path d="M0.064,-0.265C0.064,-0.08 0.181,0.009 0.366,0.009C0.541,0.009 0.666,-0.072 0.666,-0.265L0.666,-0.672C0.666,-0.687 0.655,-0.697 0.64,-0.697L0.565,-0.697C0.533,-0.697 0.5,-0.678 0.487,-0.649C0.481,-0.638 0.478,-0.626 0.478,-0.612L0.478,-0.267C0.478,-0.19 0.445,-0.144 0.365,-0.144C0.286,-0.144 0.252,-0.191 0.252,-0.267L0.252,-0.672C0.252,-0.687 0.241,-0.697 0.226,-0.697L0.151,-0.697C0.142,-0.697 0.132,-0.695 0.122,-0.692C0.111,-0.688 0.102,-0.682 0.094,-0.675C0.085,-0.668 0.078,-0.659 0.073,-0.648C0.067,-0.637 0.064,-0.625 0.064,-0.611L0.064,-0.265Z" style="fill-rule:nonzero;"/>
                    </g>
                    <g transform="matrix(12,0,0,12,400.481,181.331)">
                        <path d="M0.048,-0.298C0.048,-0.242 0.051,-0.19 0.076,-0.139C0.128,-0.027 0.244,0.01 0.361,0.01C0.53,0.01 0.678,-0.07 0.678,-0.261L0.678,-0.331C0.678,-0.379 0.656,-0.403 0.608,-0.403L0.46,-0.403C0.435,-0.403 0.413,-0.395 0.396,-0.376C0.382,-0.358 0.373,-0.34 0.373,-0.316L0.373,-0.299C0.373,-0.286 0.386,-0.273 0.399,-0.273L0.576,-0.273C0.563,-0.273 0.55,-0.267 0.539,-0.261C0.521,-0.248 0.512,-0.239 0.506,-0.217C0.501,-0.197 0.492,-0.181 0.477,-0.168C0.472,-0.163 0.466,-0.159 0.461,-0.156C0.456,-0.152 0.45,-0.149 0.443,-0.147C0.426,-0.14 0.396,-0.139 0.378,-0.139C0.288,-0.139 0.245,-0.174 0.241,-0.265L0.241,-0.302C0.24,-0.316 0.24,-0.333 0.24,-0.352C0.24,-0.371 0.24,-0.388 0.241,-0.403L0.241,-0.438C0.244,-0.517 0.284,-0.557 0.361,-0.557C0.413,-0.557 0.453,-0.539 0.473,-0.489C0.476,-0.485 0.48,-0.482 0.483,-0.479C0.488,-0.476 0.494,-0.475 0.499,-0.475L0.653,-0.475C0.665,-0.475 0.675,-0.485 0.675,-0.497C0.674,-0.531 0.661,-0.564 0.636,-0.596C0.577,-0.679 0.457,-0.706 0.361,-0.706C0.166,-0.706 0.048,-0.617 0.048,-0.406C0.047,-0.391 0.047,-0.372 0.047,-0.351C0.047,-0.33 0.047,-0.313 0.048,-0.298Z" style="fill-rule:nonzero;"/>
                    </g>
                </g>
                <g transform="matrix(33.7102,0,0,33.7102,-60436.5,-23867.2)">
                    <g transform="matrix(12,0,0,12,1807.99,724.995)">
                        <path d="M0.141,-0.183C0.099,-0.183 0.052,-0.143 0.052,-0.1L0.052,-0.026C0.052,-0.012 0.064,-0.001 0.078,-0.001L0.21,-0.001C0.217,-0.001 0.223,-0.003 0.228,-0.008C0.233,-0.014 0.235,-0.02 0.235,-0.026L0.235,-0.157C0.235,-0.164 0.233,-0.17 0.228,-0.176C0.223,-0.181 0.217,-0.183 0.21,-0.183L0.141,-0.183Z" style="fill-rule:nonzero;"/>
                    </g>
                </g>
            </g>
        </g>
    </g>
</svg>
