<svg width="77" height="90" viewBox="0 0 77 90" fill="none" xmlns="http://www.w3.org/2000/svg">
<path d="M19.5432 36.1912C17.6392 37.3213 15.8924 38.3743 14.1456 39.4272C13.7522 39.6594 13.3743 39.9231 13.1056 40.2502C12.5527 40.873 12.4847 41.6089 12.8079 42.426C13.2546 43.4947 13.9221 44.377 14.7627 45.1351C15.759 46.051 16.7712 46.9201 17.8309 47.7268C20.4175 49.7353 23.099 51.6191 25.8754 53.3782C31.3351 56.7862 36.7478 60.1781 42.1439 63.6953C44.7174 65.359 47.101 67.272 49.5955 69.0134C52.1054 70.7863 54.6783 72.5284 57.1882 74.3013C58.5756 75.2983 60.1264 75.3565 61.6794 75.1012C63.4835 74.8008 64.6555 73.0543 64.3865 71.2348C64.177 69.8545 63.6062 68.6125 62.5785 67.712C60.7256 66.0849 58.7778 64.5824 56.83 63.0799C56.2066 62.6053 55.4564 62.3492 54.6421 62.2807C53.4207 62.178 53.0102 62.6137 53.2682 63.7751C53.2831 63.8849 53.3294 63.9792 53.39 64.2617C53.0155 64.0553 52.7656 63.9438 52.5317 63.7855C48.7568 61.4237 45.1088 58.8436 41.6032 56.0764C36.1189 51.7438 30.4127 47.7543 24.6911 43.7334C23.8493 43.132 22.9441 42.6398 22.0708 42.0538C21.8369 41.8954 21.6185 41.7685 21.3222 41.5627C22.392 40.9592 23.3675 40.4022 24.3115 39.8605C24.5791 39.6901 24.8136 39.7701 25.0943 39.9445C25.7651 40.3567 26.4359 40.7689 27.1067 41.1811C28.5416 42.1158 29.9986 42.142 31.4778 41.2595C31.9026 41.0118 32.3743 40.7802 32.7528 40.4382C33.8089 39.5683 33.8813 38.2056 32.98 37.165C32.7158 36.8654 32.4041 36.6281 32.0924 36.3909C26.4795 32.5118 20.9135 28.6487 15.2845 24.8165C13.6473 23.7079 11.9151 22.724 10.2149 21.6463C9.98103 21.488 9.76258 21.3611 9.46635 21.1552C9.89118 20.9076 10.2057 20.7532 10.5207 20.5204C11.2451 20.0085 11.4378 19.3675 11.1924 18.6293C10.9927 18.0638 10.6342 17.8105 10.0229 17.8375C9.64663 17.8661 9.31839 17.7541 8.97415 17.6889C8.58301 17.6078 8.06608 17.5884 7.6887 17.7737C6.13285 18.4206 4.65534 19.0681 3.17727 19.794C2.64266 20.0565 2.12292 20.4288 1.65007 20.8171C0.672925 21.6092 0.57127 22.674 1.41082 23.5888C1.84604 24.0776 2.37561 24.5202 2.96863 24.8535C5.02904 25.9494 6.99399 27.2483 8.87947 28.7034C12.074 31.1549 15.348 33.4504 18.7168 35.6212C18.9507 35.7795 19.1846 35.9379 19.5432 36.1912Z" fill="black"/>
<path d="M49.3012 37.8932C50.2756 37.4928 51.187 37.1233 52.1145 36.7069C53.576 36.1063 55.0689 35.4903 56.515 34.8582C56.8449 34.7352 57.1279 34.5963 57.427 34.4104C58.5917 33.6823 58.8048 32.3676 57.9664 31.2962C57.8732 31.1858 57.7799 31.0755 57.6707 31.012C54.4332 27.996 51.5583 24.685 48.7308 21.3116C45.5767 17.5911 42.3912 13.8861 39.2211 10.2126C38.5994 9.50302 37.9463 8.80891 37.3247 8.09936C36.4697 7.1531 35.4855 6.73865 34.2287 7.1997C32.909 7.69163 31.5744 8.07378 30.2702 8.59716C24.4396 11.031 18.47 13.1818 12.5165 15.2857C11.0241 15.8234 9.5157 16.408 8.0542 17.0086C7.53558 17.2243 7.04786 17.5028 6.6379 17.8602C5.58186 18.7301 5.63464 20.1093 6.64687 20.9784C6.97399 21.2471 7.34856 21.4535 7.72313 21.6599C8.72161 22.2624 9.70464 22.8336 10.6717 23.4516C13.3229 25.1942 15.9426 26.9522 18.6098 28.6479C21.277 30.3436 23.9756 32.0238 26.6743 33.7041C27.4543 34.1797 28.2189 34.6239 28.9835 35.0681C29.2019 35.195 29.4358 35.3534 29.7789 35.5752C29.4645 35.7297 29.2758 35.8223 29.0871 35.915C26.4923 37.2282 23.8821 38.51 21.2873 39.8232C21.0986 39.9159 20.894 40.0554 20.7207 40.1796C19.6492 41.018 19.5922 42.4121 20.5884 43.328C20.9464 43.6596 21.4148 43.898 21.8677 44.105C23.991 45.17 26.1303 46.1881 28.2376 47.3001C29.2367 47.8243 30.2191 48.4738 31.1387 49.1541C36.0643 52.7463 40.943 56.3224 45.8211 59.9769C50.8553 63.7108 55.8575 67.5385 60.8603 71.2879C61.2343 71.5726 61.6397 71.8419 62.1087 72.002C63.2495 72.4175 64.225 71.8605 64.656 70.7511C64.9595 69.9385 64.9651 69.1551 64.6259 68.3849C64.0253 66.9234 63.4407 65.415 62.6989 63.9838C60.0719 58.8726 57.3505 53.8077 54.7235 48.6966C52.9464 45.2367 51.2322 41.7459 49.4866 38.2706C49.3773 38.2071 49.347 38.0659 49.3012 37.8932Z" fill="#EA552B"/>
</svg>
