<svg width="77" height="90" viewBox="0 0 77 90" fill="none" xmlns="http://www.w3.org/2000/svg">
<path d="M56.5877 36.1912C58.4917 37.3213 60.2385 38.3743 61.9853 39.4272C62.3786 39.6594 62.7566 39.9231 63.0253 40.2502C63.5782 40.873 63.6461 41.6089 63.323 42.426C62.8762 43.4947 62.2088 44.377 61.3681 45.1351C60.3719 46.051 59.3597 46.9201 58.3 47.7268C55.7134 49.7353 53.0318 51.6191 50.2554 53.3782C44.7958 56.7862 39.3831 60.1781 33.9869 63.6953C31.4135 65.359 29.0299 67.272 26.5354 69.0134C24.0254 70.7863 21.4526 72.5284 18.9426 74.3013C17.5553 75.2983 16.0045 75.3565 14.4514 75.1012C12.6474 74.8008 11.4754 73.0543 11.7444 71.2348C11.9538 69.8545 12.5247 68.6125 13.5523 67.712C15.4052 66.0849 17.3531 64.5824 19.3009 63.0799C19.9242 62.6053 20.6745 62.3492 21.4888 62.2807C22.7102 62.178 23.1207 62.6137 22.8627 63.7751C22.8478 63.8849 22.8015 63.9792 22.7408 64.2617C23.1154 64.0553 23.3653 63.9438 23.5992 63.7855C27.3741 61.4237 31.0221 58.8436 34.5277 56.0764C40.012 51.7438 45.7182 47.7543 51.4397 43.7334C52.2815 43.132 53.1868 42.6398 54.06 42.0538C54.2939 41.8954 54.5124 41.7685 54.8086 41.5627C53.7388 40.9592 52.7634 40.4022 51.8193 39.8605C51.5518 39.6901 51.3173 39.7701 51.0365 39.9445C50.3657 40.3567 49.6949 40.7689 49.0241 41.1811C47.5893 42.1158 46.1323 42.142 44.6531 41.2595C44.2283 41.0118 43.7565 40.7802 43.378 40.4382C42.322 39.5683 42.2495 38.2056 43.1509 37.165C43.4151 36.8654 43.7268 36.6281 44.0384 36.3909C49.6514 32.5118 55.2174 28.6487 60.8463 24.8165C62.4836 23.7079 64.2158 22.724 65.9159 21.6463C66.1498 21.488 66.3683 21.3611 66.6645 21.1552C66.2397 20.9076 65.9252 20.7532 65.6101 20.5204C64.8857 20.0085 64.6931 19.3675 64.9385 18.6293C65.1381 18.0638 65.4967 17.8105 66.108 17.8375C66.4842 17.8661 66.8125 17.7541 67.1567 17.6889C67.5479 17.6078 68.0648 17.5884 68.4422 17.7737C69.998 18.4206 71.4755 19.0681 72.9536 19.794C73.4882 20.0565 74.0079 20.4288 74.4808 20.8171C75.4579 21.6092 75.5596 22.674 74.72 23.5888C74.2848 24.0776 73.7553 24.5202 73.1622 24.8535C71.1018 25.9494 69.1369 27.2483 67.2514 28.7034C64.0569 31.1549 60.7829 33.4504 57.414 35.6212C57.1801 35.7795 56.9462 35.9379 56.5877 36.1912Z" fill="black"/>
<path d="M26.8296 37.8932C25.8553 37.4928 24.9438 37.1233 24.0164 36.7069C22.5549 36.1063 21.0619 35.4903 19.6159 34.8582C19.286 34.7352 19.0029 34.5962 18.7039 34.4104C17.5392 33.6823 17.3261 32.3676 18.1645 31.2961C18.2577 31.1858 18.3509 31.0754 18.4601 31.012C21.6976 27.996 24.5726 24.685 27.4001 21.3116C30.5542 17.5911 33.7397 13.8861 36.9098 10.2126C37.5314 9.503 38.1845 8.80889 38.8062 8.09934C39.6612 7.15308 40.6454 6.73864 41.9022 7.19968C43.2219 7.69162 44.5564 8.07376 45.8607 8.59715C51.6913 11.031 57.6608 13.1818 63.6144 15.2857C65.1068 15.8234 66.6152 16.408 68.0767 17.0086C68.5953 17.2242 69.083 17.5028 69.493 17.8602C70.549 18.7301 70.4962 20.1093 69.484 20.9784C69.1569 21.2471 68.7823 21.4535 68.4077 21.6598C67.4093 22.2624 66.4262 22.8335 65.4592 23.4516C62.808 25.1941 60.1883 26.9522 57.5211 28.6479C54.8539 30.3435 52.1552 32.0238 49.4566 33.704C48.6766 34.1797 47.912 34.6239 47.1474 35.0681C46.9289 35.195 46.695 35.3534 46.3519 35.5752C46.6664 35.7297 46.8551 35.8223 47.0438 35.915C49.6386 37.2282 52.2488 38.51 54.8435 39.8232C55.0322 39.9159 55.2369 40.0554 55.4102 40.1795C56.4816 41.018 56.5387 42.4121 55.5424 43.328C55.1844 43.6596 54.7161 43.898 54.2632 44.105C52.1398 45.17 50.0005 46.1881 47.8932 47.3001C46.8942 47.8243 45.9117 48.4738 44.9921 49.1541C40.0666 52.7463 35.1879 56.3224 30.3098 59.9769C25.2756 63.7108 20.2734 67.5385 15.2706 71.2879C14.8966 71.5726 14.4911 71.8419 14.0222 72.0019C12.8814 72.4175 11.9059 71.8604 11.4749 70.751C11.1714 69.9385 11.1657 69.1551 11.5049 68.3849C12.1055 66.9234 12.6901 65.415 13.432 63.9838C16.059 58.8726 18.7804 53.8077 21.4074 48.6965C23.1845 45.2367 24.8987 41.7459 26.6443 38.2706C26.7535 38.2071 26.7838 38.0659 26.8296 37.8932Z" fill="#EA552B"/>
</svg>
